<svg 
  xmlns="http://www.w3.org/2000/svg" 
  xmlns:xlink="http://www.w3.org/1999/xlink">
  <symbol viewBox="0 0 24 16" id="arrow" 
    xmlns="http://www.w3.org/2000/svg">
    <path d="M16 -6.99382e-07L14.59 1.41L20.17 7L-3.93402e-07 7L-3.0598e-07 9L20.17 9L14.58 14.58L16 16L24 8L16 -6.99382e-07Z"/>
  </symbol>
  <symbol viewBox="0 0 20 20" id="instagram" 
    xmlns="http://www.w3.org/2000/svg">
    <path d="M5.8 1.90735e-05H14.2C17.4032 1.90735e-05 20 2.59677 20 5.80002V14.2C20 17.4033 17.4032 20 14.2 20H5.8C2.59675 20 0 17.4033 0 14.2V5.80002C0 2.59677 2.59675 1.90735e-05 5.8 1.90735e-05ZM5.6 2C3.61177 2 2 3.61178 2 5.6V14.4C2 16.3882 3.61177 18 5.6 18H14.4C16.3882 18 18 16.3882 18 14.4V5.6C18 3.61178 16.3882 2 14.4 2H5.6ZM15.25 3.5C15.9404 3.5 16.5 4.05965 16.5 4.75C16.5 5.44036 15.9404 6 15.25 6C14.5596 6 14 5.44036 14 4.75C14 4.05965 14.5596 3.5 15.25 3.5ZM10 5C12.7614 5 15 7.23858 15 10C15 12.7614 12.7614 15 10 15C7.23857 15 5 12.7614 5 10C5 7.23858 7.23857 5 10 5ZM10 7C8.3431 7 7 8.3432 7 10C7 11.6569 8.3431 13 10 13C11.6569 13 13 11.6569 13 10C13 8.3432 11.6569 7 10 7Z"/>
  </symbol>
  <symbol viewBox="0 0 22 17" id="twitter" 
    xmlns="http://www.w3.org/2000/svg">
    <path d="M21.4592 2.01238C20.6896 2.35373 19.8624 2.58442 18.9944 2.68815C19.8803 2.15701 20.5609 1.31598 20.8813 0.31378C20.052 0.80564 19.1336 1.16278 18.156 1.3552C17.3732 0.52112 16.2579 0 15.0235 0C12.6534 0 10.7317 1.92147 10.7317 4.29155C10.7317 4.6279 10.7697 4.95546 10.8429 5.2696C7.27609 5.0906 4.11375 3.38203 1.99709 0.78551C1.62765 1.41935 1.41601 2.15656 1.41601 2.94309C1.41601 4.43204 2.17364 5.74563 3.32523 6.5153C2.62179 6.4929 1.95996 6.2999 1.38139 5.97846C1.38098 5.99639 1.38098 6.0143 1.38098 6.0324C1.38098 8.1118 2.86033 9.8463 4.82359 10.2406C4.46349 10.3387 4.08434 10.3912 3.69294 10.3912C3.4164 10.3912 3.14755 10.3642 2.88546 10.3142C3.43161 12.0191 5.01653 13.26 6.89454 13.2945C5.42576 14.4457 3.57527 15.1318 1.56453 15.1318C1.21812 15.1318 0.876511 15.1114 0.540771 15.0717C2.44003 16.2894 4.69591 17 7.1195 17C15.0134 17 19.3302 10.4605 19.3302 4.78918C19.3302 4.60314 19.326 4.41805 19.3177 4.23395C20.1563 3.62886 20.8839 2.87302 21.4592 2.01238Z"/>
  </symbol>
  <symbol viewBox="0 0 512 512" id="user" 
    xmlns="http://www.w3.org/2000/svg">
    <!--!Font Awesome Free 6.7.2 by @fontawesome - https://fontawesome.com License - https://fontawesome.com/license/free Copyright 2025 Fonticons, Inc.-->
    <path d="M406.5 399.6C387.4 352.9 341.5 320 288 320l-64 0c-53.5 0-99.4 32.9-118.5 79.6C69.9 362.2 48 311.7 48 256C48 141.1 141.1 48 256 48s208 93.1 208 208c0 55.7-21.9 106.2-57.5 143.6zm-40.1 32.7C334.4 452.4 296.6 464 256 464s-78.4-11.6-110.5-31.7c7.3-36.7 39.7-64.3 78.5-64.3l64 0c38.8 0 71.2 27.6 78.5 64.3zM256 512A256 256 0 1 0 256 0a256 256 0 1 0 0 512zm0-272a40 40 0 1 1 0-80 40 40 0 1 1 0 80zm-88-40a88 88 0 1 0 176 0 88 88 0 1 0 -176 0z"/>
  </symbol>
</svg>